<svg xmlns="http://www.w3.org/2000/svg" xmlns:xlink="http://www.w3.org/1999/xlink" width="500" zoomAndPan="magnify" viewBox="0 0 375 374.999991" height="500" preserveAspectRatio="xMidYMid meet" version="1.0"><defs><clipPath id="468cf3c0ac"><path d="M 48.707031 3.054688 L 326 3.054688 L 326 372.054688 L 48.707031 372.054688 Z M 48.707031 3.054688 " clip-rule="nonzero"/></clipPath><clipPath id="b27131bef9"><path d="M 122.003906 144.339844 L 252.996094 144.339844 L 252.996094 275.332031 L 122.003906 275.332031 Z M 122.003906 144.339844 " clip-rule="nonzero"/></clipPath><clipPath id="e47ccce52d"><path d="M 187.5 144.339844 C 151.328125 144.339844 122.003906 173.660156 122.003906 209.835938 C 122.003906 246.007812 151.328125 275.332031 187.5 275.332031 C 223.671875 275.332031 252.996094 246.007812 252.996094 209.835938 C 252.996094 173.660156 223.671875 144.339844 187.5 144.339844 " clip-rule="nonzero"/></clipPath></defs><rect x="-37.5" width="450" fill="#ffffff" y="-37.499999" height="449.999989" fill-opacity="1"/><rect x="-37.5" width="450" fill="#ffffff" y="-37.499999" height="449.999989" fill-opacity="1"/><rect x="-37.5" width="450" fill="#ffffff" y="-37.499999" height="449.999989" fill-opacity="1"/><g clip-path="url(#468cf3c0ac)"><path fill="#000000" d="M 69.4375 125.605469 C 68.242188 125.605469 67.105469 126.109375 66.296875 126.988281 C 65.492188 127.871094 65.09375 129.046875 65.191406 130.238281 L 79.667969 297.164062 C 79.859375 299.367188 81.699219 301.054688 83.910156 301.058594 L 291 301.058594 C 293.210938 301.054688 295.054688 299.367188 295.242188 297.164062 L 309.726562 130.238281 C 309.828125 129.046875 309.425781 127.867188 308.617188 126.988281 C 307.8125 126.105469 306.671875 125.605469 305.472656 125.605469 Z M 74.082031 134.132812 L 300.828125 134.132812 L 287.089844 292.523438 L 87.820312 292.523438 Z M 69.433594 129.867188 L 83.914062 296.792969 L 291 296.792969 L 305.476562 129.867188 Z M 64.472656 72.597656 L 65.421875 83.566406 L 309.492188 83.566406 L 310.441406 72.597656 Z M 64.464844 68.035156 C 63.1875 68.035156 61.96875 68.570312 61.101562 69.515625 C 60.234375 70.460938 59.808594 71.722656 59.917969 72.996094 L 85.492188 367.859375 C 85.695312 370.222656 87.667969 372.03125 90.039062 372.035156 L 284.871094 372.035156 C 287.238281 372.03125 289.214844 370.222656 289.421875 367.859375 L 314.992188 72.996094 C 315.105469 71.722656 314.675781 70.460938 313.808594 69.515625 C 312.945312 68.570312 311.722656 68.035156 310.445312 68.035156 Z M 69.457031 77.171875 L 305.464844 77.171875 L 280.683594 362.894531 L 94.230469 362.894531 Z M 55.945312 25.382812 C 53.523438 25.382812 51.527344 27.273438 51.386719 29.6875 L 48.953125 72.34375 C 48.878906 73.59375 49.328125 74.824219 50.191406 75.738281 C 51.054688 76.652344 52.253906 77.171875 53.507812 77.171875 L 321.402344 77.171875 C 322.65625 77.171875 323.859375 76.652344 324.722656 75.738281 C 325.582031 74.824219 326.03125 73.59375 325.957031 72.34375 L 323.523438 29.6875 C 323.382812 27.273438 321.386719 25.382812 318.964844 25.382812 Z M 60.257812 34.519531 L 314.652344 34.519531 L 316.566406 68.035156 L 58.34375 68.035156 Z M 88.394531 3.058594 C 86.253906 3.058594 84.402344 4.542969 83.933594 6.628906 L 78.886719 29.367188 C 78.585938 30.71875 78.914062 32.136719 79.78125 33.214844 C 80.648438 34.296875 81.957031 34.925781 83.34375 34.925781 L 291.570312 34.925781 C 292.953125 34.925781 294.261719 34.296875 295.132812 33.214844 C 295.996094 32.136719 296.324219 30.71875 296.027344 29.367188 L 290.976562 6.628906 C 290.507812 4.542969 288.65625 3.058594 286.515625 3.058594 Z M 92.054688 12.199219 L 282.859375 12.199219 L 285.878906 25.789062 L 89.03125 25.789062 L 92.054688 12.199219 " fill-opacity="1" fill-rule="nonzero"/></g><g clip-path="url(#b27131bef9)"><g clip-path="url(#e47ccce52d)"><path fill="#ffffff" d="M 122.003906 144.339844 L 252.996094 144.339844 L 252.996094 275.332031 L 122.003906 275.332031 Z M 122.003906 144.339844 " fill-opacity="1" fill-rule="nonzero"/></g></g></svg>